<?xml version="1.0"?>
<svg xmlns="http://www.w3.org/2000/svg" xmlns:xlink="http://www.w3.org/1999/xlink" id="Gradient" viewBox="0 0 512 512" width="512" height="512"><defs><linearGradient id="linear-gradient" x1="255.999" y1="456" x2="255.999" y2="39.998" gradientUnits="userSpaceOnUse"><stop offset="0" stop-color="#12c2e9"/><stop offset="0.5" stop-color="#c471ed"/><stop offset="1" stop-color="#f64f59"/></linearGradient></defs><path d="M256,128A128,128,0,1,0,384,256,128.146,128.146,0,0,0,256,128Zm0,240A112,112,0,1,1,368,256,112.127,112.127,0,0,1,256,368ZM488,40H472a72.081,72.081,0,0,0-72,72v17a191.967,191.967,0,0,0-273.967-14.3l-4.279-67.21a8,8,0,0,0-15.967,1.018l5.08,79.789c-3.685,2.593-14.16,6.488-30.867,7.469V48a8,8,0,0,0-16,0v87.765c-15.753-.942-26.747-4.529-30.866-7.493l5.079-79.763a8,8,0,0,0-15.967-1.018l-6.181,97.062A37.263,37.263,0,0,0,48,183.628V264a8,8,0,0,0-8,8V424a32,32,0,0,0,64,0V373.278a192.084,192.084,0,0,0,328-40.415V424a32,32,0,0,0,64,0V48A8,8,0,0,0,488,40Zm-72,72a56.063,56.063,0,0,1,56-56h8V264H416ZM32.035,145.584C41.005,149.274,54.2,152,72,152c14.619,0,29.3-2.045,39.963-6.378A21.25,21.25,0,0,1,90.739,168H53.261a21.256,21.256,0,0,1-21.226-22.416ZM64,184H80v80H64ZM88,424a16,16,0,0,1-32,0V280H88Zm287.28-38.582A176.008,176.008,0,0,1,104,344.732V272a8,8,0,0,0-8-8V183.628a37.261,37.261,0,0,0,31.932-39.114l-.551-8.641A175.973,175.973,0,0,1,400,154.829V272a8,8,0,0,0,8,8h22.369A175.419,175.419,0,0,1,375.28,385.418ZM464,440a16.019,16.019,0,0,1-16-16V280h32V424A16.019,16.019,0,0,1,464,440Z" style="fill:url(#linear-gradient)"/></svg>
